<?xml version="1.0" encoding="UTF-8"?>
<svg width="128" height="128" viewBox="0 0 128 128" fill="none" xmlns="http://www.w3.org/2000/svg" role="img" aria-label="Flores Victoria">
  <defs>
    <linearGradient id="g" x1="0" y1="0" x2="1" y2="1">
      <stop offset="0%" stop-color="#667eea"/>
      <stop offset="100%" stop-color="#764ba2"/>
    </linearGradient>
  </defs>
  <circle cx="64" cy="64" r="60" fill="url(#g)" opacity="0.12"/>
  <g stroke="url(#g)" stroke-width="4" stroke-linecap="round" stroke-linejoin="round" fill="none">
    <!-- stylized flower: center + 5 petals -->
    <circle cx="64" cy="64" r="6" fill="url(#g)"/>
    <path d="M64 26c8 8 8 20 0 28c-8-8-8-20 0-28z"/>
    <path d="M102 64c-8 8-20 8-28 0c8-8 20-8 28 0z"/>
    <path d="M64 102c-8-8-8-20 0-28c8 8 8 20 0 28z"/>
    <path d="M26 64c8-8 20-8 28 0c-8 8-20 8-28 0z"/>
    <path d="M90 38c-5 10-16 14-26 9c5-10 16-14 26-9z"/>
  </g>
  <path d="M64 84c0 12-8 24-24 24" stroke="url(#g)" stroke-width="4" stroke-linecap="round"/>
</svg>
